<svg xmlns="http://www.w3.org/2000/svg"  viewBox="0 0 100 100" width="50px" height="50px"><circle cx="50" cy="50" r="37" fill="#e6edb7"/><circle cx="13" cy="29" r="2" fill="#88ae45"/><circle cx="77" cy="13" r="1" fill="#f1bc19"/><circle cx="83" cy="15" r="4" fill="#f1bc19"/><circle cx="87" cy="24" r="2" fill="#88ae45"/><circle cx="81" cy="76" r="2" fill="#fbcd59"/><circle cx="15" cy="63" r="4" fill="#fbcd59"/><circle cx="25" cy="87" r="2" fill="#88ae45"/><circle cx="18.5" cy="53.5" r="2.5" fill="#fff"/><circle cx="21" cy="67" r="1" fill="#f1bc19"/><circle cx="80" cy="34" r="1" fill="#fff"/><g><polygon fill="#fcc938" points="75.18,56.5 75.47,56 58.67,27 41.907,27 58.992,56.5"/><polygon fill="#67ba8c" points="50,40.973 41.907,27 41.33,27 24.53,56 32.903,70.494"/><polygon fill="#1e65d6" points="75.18,56.5 41.008,56.5 32.903,70.494 33.196,71 66.78,71"/></g><g><path fill="#472b29" d="M28.429,56.379c-0.064,0-0.129-0.016-0.188-0.05c-0.18-0.104-0.241-0.333-0.137-0.513l13.693-23.645 c0.104-0.181,0.335-0.24,0.512-0.137c0.18,0.104,0.241,0.333,0.137,0.513L28.753,56.192C28.684,56.313,28.558,56.379,28.429,56.379 z"/><path fill="#472b29" d="M70.193,54c-0.129,0-0.255-0.067-0.324-0.187l-0.724-1.25c-0.104-0.179-0.043-0.409,0.137-0.513 c0.176-0.103,0.407-0.044,0.512,0.137l0.724,1.25c0.104,0.179,0.043,0.409-0.137,0.513C70.322,53.984,70.258,54,70.193,54z"/><path fill="#472b29" d="M64.981,45c-0.129,0-0.255-0.067-0.324-0.187l-8.253-14.25c-0.104-0.179-0.043-0.409,0.137-0.513 c0.176-0.103,0.407-0.044,0.512,0.137l8.253,14.25c0.104,0.179,0.043,0.409-0.137,0.513C65.11,44.984,65.046,45,64.981,45z"/><path fill="#472b29" d="M68.456,51c-0.129,0-0.255-0.067-0.324-0.187l-1.882-3.25c-0.104-0.179-0.043-0.409,0.137-0.513 c0.175-0.104,0.407-0.043,0.512,0.137l1.882,3.25c0.104,0.179,0.043,0.409-0.137,0.513C68.585,50.984,68.521,51,68.456,51z"/><path fill="#472b29" d="M64.837,68h-1.462C63.168,68,63,67.832,63,67.625s0.168-0.375,0.375-0.375h1.462 c0.207,0,0.375,0.168,0.375,0.375S65.044,68,64.837,68z"/><path fill="#472b29" d="M61.625,68h-2.25C59.168,68,59,67.832,59,67.625s0.168-0.375,0.375-0.375h2.25 c0.207,0,0.375,0.168,0.375,0.375S61.832,68,61.625,68z"/><path fill="#472b29" d="M56.625,68H37.453c-0.207,0-0.375-0.168-0.375-0.375s0.168-0.375,0.375-0.375h19.172 c0.207,0,0.375,0.168,0.375,0.375S56.832,68,56.625,68z"/><path fill="#472b29" d="M50,42.769L57.431,55.6H42.569L50,42.769 M50,39.976L40.14,57h19.72L50,39.976L50,39.976z"/><path fill="#472b29" d="M58.443,27.4L75.007,56l-8.456,14.6H33.417l-8.425-14.599L41.557,27.4H58.443 M58.674,26H41.326 c-0.357,0-0.687,0.19-0.865,0.499L23.665,55.5c-0.179,0.31-0.18,0.691-0.001,1.001L32.32,71.5c0.179,0.31,0.509,0.5,0.866,0.5 h33.596c0.357,0,0.687-0.19,0.865-0.499l8.687-15c0.18-0.31,0.18-0.692,0-1.002l-16.796-29C59.36,26.19,59.03,26,58.674,26 L58.674,26z"/><rect width="34.173" height="1" x="41.008" y="56" fill="#472b29"/><rect width="34.113" height="1" x="24.396" y="55.236" fill="#472b29" transform="rotate(-59.927 41.453 55.735)"/><rect width="1" height="34.089" x="49.949" y="24.702" fill="#472b29" transform="rotate(-30.08 50.45 41.747)"/></g></svg>